# xmcd
#
# Track frame offsets: 
#        150
#        62447
#        74923
#        91541
#        105764
#        118306
#        137561
#        151773
#        178155
#        192434
#        207987
#        228752
#        241817
#        255084
#        277178
#        290624
#        314830
#        325458
#
# Disc length: 4529 seconds
#
# Revision: 2
# Processed by: cddbd v1.5.2PL0 Copyright (c) Steve Scherf et al.
# Submitted via: ExactAudioCopy v0.99pb3
#
DISCID=0611af12
DTITLE=Various Artist - Battle Of Saxes - Volume 1 CD 3
DYEAR=2004
DGENRE=Instrumental
TTITLE0=Wardell Gray - The Steeple Chase
TTITLE1=Coleman Hawkins - Sweethearts On Parade
TTITLE2=Gene Ammons - Stairway To The Stars
TTITLE3=Ben Webster - You're My Thrill
TTITLE4=Arnett Cobb - Arnett Blows For 1300
TTITLE5=Dexter Gordon - My Kinda Love
TTITLE6=Eddie 'Lockjaw' Davis - Huckle Bug
TTITLE7=Lester Young - AD Lib Blues
TTITLE8=Wardell Gray - One For Prez
TTITLE9=Don Byas - No One But You
TTITLE10=Frank Foster - Just 40 Bars
TTITLE11=Paul Quinichette - Bot Bot
TTITLE12=Stan Getz - Lover Come Back To Me
TTITLE13=Lucky Thompson - Thin Ice
TTITLE14=Zoot Sims - Night And Day
TTITLE15=Gerry Mulligan - Limelight
TTITLE16=Sonny Stitt - Sonny Side
TTITLE17=Sonny Rollins - Newk's Fadeaway
EXTD=CD 3 - 4
EXTT0=
EXTT1=
EXTT2=
EXTT3=
EXTT4=
EXTT5=
EXTT6=
EXTT7=
EXTT8=
EXTT9=
EXTT10=
EXTT11=
EXTT12=
EXTT13=
EXTT14=
EXTT15=
EXTT16=
EXTT17=
PLAYORDER=
